<?xml version="1.0" encoding="UTF-8"?>
<svg xmlns="http://www.w3.org/2000/svg" xmlns:xlink="http://www.w3.org/1999/xlink" viewBox="0 0 30 30" width="30px" height="30px">
<g id="surface32290011">
<path style=" stroke:none;fill-rule:nonzero;fill:rgb(91.37255%,91.37255%,91.37255%);fill-opacity:1;" d="M 15 3 C 8.375 3 3 8.375 3 15 C 3 17.253906 3.632812 19.351562 4.710938 21.152344 L 3.109375 27 L 9.082031 25.433594 C 10.828125 26.425781 12.847656 27 15 27 C 21.628906 27 27 21.628906 27 15 C 27 8.375 21.628906 3 15 3 Z M 10.894531 9.402344 C 11.089844 9.402344 11.289062 9.402344 11.460938 9.410156 C 11.675781 9.414062 11.910156 9.429688 12.132812 9.925781 C 12.394531 10.511719 12.972656 11.980469 13.046875 12.128906 C 13.121094 12.277344 13.175781 12.453125 13.070312 12.648438 C 12.972656 12.847656 12.921875 12.96875 12.777344 13.148438 C 12.628906 13.320312 12.464844 13.53125 12.332031 13.664062 C 12.183594 13.8125 12.027344 13.976562 12.199219 14.273438 C 12.371094 14.570312 12.96875 15.542969 13.851562 16.328125 C 14.988281 17.34375 15.945312 17.65625 16.242188 17.804688 C 16.539062 17.953125 16.714844 17.929688 16.886719 17.730469 C 17.0625 17.535156 17.628906 16.867188 17.828125 16.566406 C 18.023438 16.269531 18.222656 16.320312 18.492188 16.417969 C 18.765625 16.515625 20.226562 17.238281 20.527344 17.386719 C 20.824219 17.535156 21.019531 17.609375 21.09375 17.730469 C 21.171875 17.855469 21.171875 18.449219 20.925781 19.144531 C 20.679688 19.835938 19.464844 20.507812 18.921875 20.554688 C 18.371094 20.605469 17.859375 20.800781 15.351562 19.8125 C 12.328125 18.621094 10.421875 15.523438 10.273438 15.324219 C 10.121094 15.128906 9.0625 13.714844 9.0625 12.253906 C 9.0625 10.789062 9.828125 10.070312 10.097656 9.773438 C 10.371094 9.476562 10.691406 9.402344 10.894531 9.402344 Z M 10.894531 9.402344 "/>
</g>
</svg>
